# xmcd
#
# Track frame offsets:
#	150
#	11470
#	24850
#	41040
#	55438
#	70760
#	85805
#	102358
#	115935
#	130385
#
# Disc length: 1966 seconds
#
# Revision: 0
# Processed by: cddbd v1.5.2PL0 Copyright (c) Steve Scherf et al.
# Submitted via: EasyCDDAExtractor 15.2.5.1
#
DISCID=7e07ac0a
DTITLE=Diana Blair - Angel
DYEAR=1989
DGENRE=country
TTITLE0=Angel
TTITLE1=Telephone Blues
TTITLE2=Hung Up On HoldinOn
TTITLE3=I'mA Willing Woman
TTITLE4=Baby, Let's Dance
TTITLE5=Sweet Nothins
TTITLE6=One Too Many Times
TTITLE7=I Can't Make Love To A Radio
TTITLE8=What Am I Gonna Do With You
TTITLE9=Heartbreakin' Lie
EXTD=
EXTT0=
EXTT1=
EXTT2=
EXTT3=
EXTT4=
EXTT5=
EXTT6=
EXTT7=
EXTT8=
EXTT9=
PLAYORDER=
